<svg width="100.000000" height="100.000000" viewBox="0 0 100 100" fill="none" xmlns="http://www.w3.org/2000/svg" xmlns:xlink="http://www.w3.org/1999/xlink">
	<desc>
			Created with Pixso.
	</desc>
	<defs/>
	<circle id="Ellipse 7" cx="50.000000" cy="50.000000" r="50.000000" fill="#0066FF" fill-opacity="1.000000"/>
	<path id="3" d="M63.168 58.2031C63.1797 64.168 57.5781 68.4805 49.7383 68.4805C42.0625 68.4805 36.6133 64.2383 36.4844 58.1328L43.9258 58.1328C44.0547 60.6875 46.4922 62.3867 49.75 62.3867C53.125 62.3867 55.5156 60.4883 55.4922 57.6992C55.5156 54.8867 53.043 52.918 49.082 52.918L45.8242 52.918L45.8242 47.4922L49.082 47.4922C52.4453 47.4922 54.7773 45.6406 54.7656 42.8867C54.7773 40.2617 52.7852 38.457 49.7969 38.457C46.7852 38.457 44.3477 40.1797 44.2656 42.8398L37.1875 42.8398C37.293 36.8047 42.6719 32.6094 49.832 32.6094C57.0625 32.6094 61.8906 36.9453 61.8672 42.4531C61.8906 46.3672 59.1953 49.1328 55.293 49.8242L55.293 50.1055C60.4258 50.75 63.1797 53.8555 63.168 58.2031Z" fill="#FFFFFF" fill-opacity="1.000000" fill-rule="evenodd"/>
</svg>
